<svg xmlns="http://www.w3.org/2000/svg" viewBox="0 0 2655 600" width="2655" height="600" fill="none"><rect width="2655" height="600" fill="#ffffff"/><path d="M29.166666666666668 0.0V-300.0H80.0L179.16666666666669 -100.83333333333334L278.33333333333337 -300.0H329.1666666666667V0.0H276.25V-179.16666666666669L189.16666666666669 0.0H169.16666666666669L82.08333333333334 -179.16666666666669V0.0Z M471.75 6.25Q437.79166666666663 6.25 412.16666666666663 -8.958333333333334Q386.54166666666663 -24.166666666666668 372.2708333333333 -50.93750000000001Q358.0 -77.70833333333334 358.0 -112.5Q358.0 -147.70833333333334 372.5833333333333 -174.47916666666669Q387.16666666666663 -201.25 412.79166666666663 -216.25Q438.41666666666663 -231.25 471.75 -231.25Q505.7083333333333 -231.25 531.4375 -216.04166666666669Q557.1666666666666 -200.83333333333334 571.5416666666666 -174.0625Q585.9166666666666 -147.29166666666669 585.9166666666666 -112.5Q585.9166666666666 -77.5 571.4375 -50.72916666666667Q556.9583333333333 -23.958333333333336 531.2291666666666 -8.854166666666668Q505.5 6.25 471.75 6.25ZM471.75 -46.66666666666667Q499.04166666666663 -46.66666666666667 512.4791666666666 -65.10416666666667Q525.9166666666666 -83.54166666666667 525.9166666666666 -112.5Q525.9166666666666 -142.5 512.2708333333333 -160.41666666666669Q498.625 -178.33333333333334 471.75 -178.33333333333334Q453.2083333333333 -178.33333333333334 441.3333333333333 -170.0Q429.4583333333333 -161.66666666666669 423.72916666666663 -146.875Q418.0 -132.08333333333334 418.0 -112.5Q418.0 -82.29166666666667 431.6458333333333 -64.47916666666667Q445.29166666666663 -46.66666666666667 471.75 -46.66666666666667Z M748.3333333333333 0.0V-71.66666666666667H712.0833333333333Q705.0 -71.66666666666667 692.8125 -71.97916666666667Q680.625 -72.29166666666667 670.0 -74.16666666666667Q643.125 -78.95833333333334 625.9375 -97.5Q608.75 -116.04166666666667 608.75 -147.91666666666669Q608.75 -178.95833333333334 625.2083333333333 -197.91666666666669Q641.6666666666666 -216.875 669.1666666666666 -222.08333333333334Q680.4166666666666 -224.375 692.3958333333333 -224.6875Q704.375 -225.0 712.0833333333333 -225.0H805.0V0.0ZM603.3333333333333 0.0 654.1666666666666 -83.33333333333334H712.5L662.5 0.0ZM705.8333333333333 -115.41666666666667H748.3333333333333V-181.25H705.8333333333333Q702.0833333333333 -181.25 697.6041666666666 -180.83333333333334Q693.125 -180.41666666666669 688.3333333333333 -179.16666666666669Q682.5 -177.5 677.5 -173.02083333333334Q672.5 -168.54166666666669 669.375 -162.1875Q666.25 -155.83333333333334 666.25 -148.33333333333334Q666.25 -136.45833333333334 673.3333333333333 -128.22916666666669Q680.4166666666666 -120.0 689.1666666666666 -117.5Q693.5416666666666 -116.25 698.0208333333333 -115.83333333333334Q702.5 -115.41666666666667 705.8333333333333 -115.41666666666667Z" fill="#000000" transform="translate(150.00 450.00)"/><path d="M1140.5833333333335 50.0V0.0H913.5V-300.0H970.1666666666667V-50.0H1106.8333333333335V-291.6666666666667H1163.5V-50.0H1197.25V50.0Z M1318.4166666666667 6.25Q1283.8333333333335 6.25 1257.4791666666667 -8.645833333333334Q1231.125 -23.541666666666668 1216.2291666666667 -49.68750000000001Q1201.3333333333335 -75.83333333333334 1201.3333333333335 -109.58333333333334Q1201.3333333333335 -146.45833333333334 1215.9166666666667 -173.75Q1230.5 -201.04166666666669 1256.125 -216.14583333333334Q1281.75 -231.25 1315.0833333333335 -231.25Q1350.5 -231.25 1375.2916666666667 -214.58333333333334Q1400.0833333333335 -197.91666666666669 1411.9583333333335 -167.70833333333334Q1423.8333333333335 -137.5 1420.2916666666667 -96.66666666666667H1364.25V-117.5Q1364.25 -151.875 1353.3125 -166.97916666666669Q1342.375 -182.08333333333334 1317.5833333333335 -182.08333333333334Q1288.625 -182.08333333333334 1274.9791666666667 -164.47916666666669Q1261.3333333333335 -146.875 1261.3333333333335 -112.5Q1261.3333333333335 -81.04166666666667 1274.9791666666667 -63.85416666666667Q1288.625 -46.66666666666667 1315.0833333333335 -46.66666666666667Q1331.75 -46.66666666666667 1343.625 -53.958333333333336Q1355.5 -61.25 1361.75 -75.0L1418.4166666666667 -58.75Q1405.7083333333335 -27.916666666666668 1378.3125 -10.833333333333334Q1350.9166666666667 6.25 1318.4166666666667 6.25ZM1243.8333333333335 -96.66666666666667V-138.75H1393.0V-96.66666666666667Z M1561.5833333333333 6.25Q1528.0416666666667 6.25 1505.5416666666667 -9.375Q1483.0416666666667 -25.0 1471.6875 -51.875Q1460.3333333333333 -78.75 1460.3333333333333 -112.5Q1460.3333333333333 -146.25 1471.5833333333333 -173.125Q1482.8333333333333 -200.0 1504.7083333333333 -215.625Q1526.5833333333333 -231.25 1558.6666666666667 -231.25Q1590.9583333333333 -231.25 1614.9166666666665 -215.83333333333334Q1638.875 -200.41666666666669 1652.1041666666665 -173.64583333333334Q1665.3333333333333 -146.875 1665.3333333333333 -112.5Q1665.3333333333333 -78.75 1652.3125 -51.875Q1639.2916666666667 -25.0 1615.9583333333335 -9.375Q1592.625 6.25 1561.5833333333333 6.25ZM1450.75 100.0V-225.0H1500.75V-70.83333333333334H1507.8333333333333V100.0ZM1552.4166666666667 -44.16666666666667Q1570.75 -44.16666666666667 1582.4166666666665 -53.333333333333336Q1594.0833333333333 -62.5 1599.7083333333333 -78.02083333333334Q1605.3333333333333 -93.54166666666667 1605.3333333333333 -112.5Q1605.3333333333333 -131.25 1599.5 -146.77083333333334Q1593.6666666666667 -162.29166666666669 1581.4791666666667 -171.5625Q1569.2916666666667 -180.83333333333334 1550.3333333333333 -180.83333333333334Q1532.625 -180.83333333333334 1521.6875 -172.29166666666669Q1510.75 -163.75 1505.75 -148.33333333333334Q1500.75 -132.91666666666669 1500.75 -112.5Q1500.75 -92.08333333333334 1505.75 -76.66666666666667Q1510.75 -61.25 1522.1041666666665 -52.708333333333336Q1533.4583333333333 -44.16666666666667 1552.4166666666667 -44.16666666666667Z M1695.0833333333333 0.0 1695.5 -225.0H1753.0V-116.66666666666667L1829.25 -225.0H1899.25L1818.0 -112.5L1904.6666666666665 0.0H1830.9166666666665L1753.0 -108.33333333333334V0.0Z M1908.4166666666665 0.0V-225.0H2013.8333333333333Q2026.3333333333333 -225.0 2035.7083333333333 -223.64583333333334Q2045.0833333333333 -222.29166666666669 2051.333333333333 -220.41666666666669Q2066.75 -215.83333333333334 2079.458333333333 -202.5Q2092.1666666666665 -189.16666666666669 2092.1666666666665 -163.75Q2092.1666666666665 -148.75 2087.375 -139.47916666666669Q2082.583333333333 -130.20833333333334 2074.6666666666665 -124.16666666666667Q2070.9166666666665 -121.45833333333334 2067.1666666666665 -119.58333333333334Q2063.4166666666665 -117.70833333333334 2059.6666666666665 -116.66666666666667Q2068.4166666666665 -115.41666666666667 2075.5 -112.08333333333334Q2086.75 -107.08333333333334 2095.083333333333 -96.35416666666667Q2103.4166666666665 -85.625 2103.4166666666665 -64.58333333333334Q2103.4166666666665 -42.083333333333336 2092.4791666666665 -26.25Q2081.5416666666665 -10.416666666666668 2059.6666666666665 -4.166666666666667Q2052.1666666666665 -2.0833333333333335 2042.0625 -1.0416666666666667Q2031.9583333333333 0.0 2020.9166666666665 0.0ZM1965.9166666666665 -42.91666666666667H2016.7499999999998Q2021.1249999999998 -42.91666666666667 2025.8124999999998 -43.85416666666667Q2030.4999999999998 -44.79166666666667 2034.2499999999998 -46.25Q2040.2916666666665 -48.75 2042.895833333333 -54.79166666666667Q2045.4999999999998 -60.833333333333336 2045.4999999999998 -67.08333333333334Q2045.4999999999998 -75.83333333333334 2041.645833333333 -80.83333333333334Q2037.7916666666665 -85.83333333333334 2032.9999999999998 -87.91666666666667Q2029.0416666666665 -89.79166666666667 2024.3541666666665 -90.10416666666667Q2019.6666666666665 -90.41666666666667 2016.7499999999998 -90.41666666666667H1965.9166666666665ZM1965.9166666666665 -134.16666666666669H2000.4999999999998Q2007.1666666666665 -134.16666666666669 2013.1041666666665 -134.89583333333334Q2019.0416666666665 -135.625 2022.9999999999998 -137.5Q2028.4166666666665 -140.0 2031.125 -145.52083333333334Q2033.8333333333333 -151.04166666666669 2033.8333333333333 -157.91666666666669Q2033.8333333333333 -165.20833333333334 2030.8125 -171.14583333333334Q2027.7916666666665 -177.08333333333334 2020.9166666666665 -179.16666666666669Q2016.3333333333333 -180.83333333333334 2009.3541666666665 -181.04166666666669Q2002.3749999999998 -181.25 2000.4999999999998 -181.25H1965.9166666666665Z M2191.6666666666665 6.25Q2167.5 6.25 2150.729166666667 -3.020833333333334Q2133.9583333333335 -12.291666666666668 2125.3125 -27.8125Q2116.6666666666665 -43.333333333333336 2116.6666666666665 -62.083333333333336Q2116.6666666666665 -77.70833333333334 2121.458333333333 -90.625Q2126.25 -103.54166666666667 2136.979166666667 -113.4375Q2147.7083333333335 -123.33333333333334 2165.8333333333335 -130.0Q2178.3333333333335 -134.58333333333334 2195.625 -138.125Q2212.9166666666665 -141.66666666666669 2234.7916666666665 -144.89583333333334Q2256.6666666666665 -148.125 2282.9166666666665 -152.08333333333334L2262.5 -140.83333333333334Q2262.5 -160.83333333333334 2252.916666666667 -170.20833333333334Q2243.3333333333335 -179.58333333333334 2220.8333333333335 -179.58333333333334Q2208.3333333333335 -179.58333333333334 2194.791666666667 -173.54166666666669Q2181.25 -167.5 2175.8333333333335 -152.08333333333334L2124.5833333333335 -168.33333333333334Q2133.125 -196.25 2156.666666666667 -213.75Q2180.2083333333335 -231.25 2220.8333333333335 -231.25Q2250.625 -231.25 2273.75 -222.08333333333334Q2296.875 -212.91666666666669 2308.75 -190.41666666666669Q2315.4166666666665 -177.91666666666669 2316.6666666666665 -165.41666666666669Q2317.9166666666665 -152.91666666666669 2317.9166666666665 -137.5V0.0H2268.3333333333335V-46.25L2275.4166666666665 -36.66666666666667Q2258.9583333333335 -13.958333333333334 2239.8958333333335 -3.854166666666667Q2220.8333333333335 6.25 2191.6666666666665 6.25ZM2203.75 -38.333333333333336Q2219.375 -38.333333333333336 2230.104166666667 -43.85416666666667Q2240.8333333333335 -49.375 2247.1875 -56.458333333333336Q2253.5416666666665 -63.54166666666667 2255.8333333333335 -68.33333333333334Q2260.2083333333335 -77.5 2260.9375 -89.6875Q2261.6666666666665 -101.875 2261.6666666666665 -110.0L2278.3333333333335 -105.83333333333334Q2253.125 -101.66666666666667 2237.5 -98.85416666666667Q2221.875 -96.04166666666667 2212.291666666667 -93.75Q2202.7083333333335 -91.45833333333334 2195.4166666666665 -88.75Q2187.0833333333335 -85.41666666666667 2181.979166666667 -81.5625Q2176.875 -77.70833333333334 2174.479166666667 -73.125Q2172.0833333333335 -68.54166666666667 2172.0833333333335 -62.91666666666667Q2172.0833333333335 -55.208333333333336 2175.9375 -49.6875Q2179.7916666666665 -44.16666666666667 2186.875 -41.25Q2193.9583333333335 -38.333333333333336 2203.75 -38.333333333333336Z" fill="#575757" transform="translate(150.00 450.00)"/></svg>